<svg xmlns="http://www.w3.org/2000/svg" version="1.1" xmlns:xlink="http://www.w3.org/1999/xlink" xmlns:svgjs="http://svgjs.dev/svgjs" width="1500" height="333" viewBox="0 0 1500 333"><g transform="matrix(1,0,0,1,-0.9089044599109002,-0.21710137716388545)"><svg viewBox="0 0 396 88" data-background-color="#ffffff" preserveAspectRatio="xMidYMid meet" height="333" width="1500" xmlns="http://www.w3.org/2000/svg" xmlns:xlink="http://www.w3.org/1999/xlink"><g id="tight-bounds" transform="matrix(1,0,0,1,0.23995077741648174,0.057372135706970084)"><svg viewBox="0 0 395.52 87.88515728341902" height="87.88515728341902" width="395.52"><g><svg viewBox="0 0 538.9605317447263 119.75786585239791" height="87.88515728341902" width="395.52"><g transform="matrix(1,0,0,1,0,34.799439572016)"><svg viewBox="0 0 395.52 50.15898670836591" height="50.15898670836591" width="395.52"><g id="textblocktransform"><svg viewBox="0 0 395.52 50.15898670836591" height="50.15898670836591" width="395.52" id="textblock"><g><svg viewBox="0 0 395.52 50.15898670836591" height="50.15898670836591" width="395.52"><g transform="matrix(1,0,0,1,0,0)"><svg width="395.52" viewBox="3.13 -39.11 312.22 39.6" height="50.15898670836591" data-palette-color="#8abe53"><path d="M14.4-3.81L14.4-3.81Q15.87-3.81 17.13-4.19 18.38-4.57 19.31-5.26 20.24-5.96 20.76-6.97 21.29-7.98 21.29-9.25L21.29-9.25Q21.29-10.77 20.57-11.82 19.85-12.87 18.65-13.66 17.46-14.45 15.94-15.09 14.43-15.72 12.85-16.38 11.28-17.04 9.77-17.83 8.25-18.63 7.06-19.74 5.86-20.85 5.14-22.39 4.42-23.93 4.42-26.1L4.42-26.1Q4.42-28.47 5.32-30.35 6.23-32.23 7.86-33.54 9.5-34.86 11.77-35.56 14.04-36.25 16.77-36.25L16.77-36.25Q17.58-36.25 18.63-36.18 19.68-36.11 20.87-35.95 22.07-35.79 23.38-35.53 24.68-35.28 26-34.89L26-34.89 25.05-30.15 24.58-29.91Q23.29-30.49 22.07-30.88 20.85-31.27 19.75-31.52 18.65-31.76 17.71-31.86 16.77-31.96 16.06-31.96L16.06-31.96Q14.72-31.96 13.62-31.64 12.52-31.32 11.76-30.71 10.99-30.1 10.56-29.21 10.13-28.32 10.13-27.17L10.13-27.17Q10.13-25.63 10.86-24.55 11.6-23.46 12.78-22.63 13.96-21.8 15.49-21.15 17.02-20.51 18.62-19.84 20.21-19.17 21.74-18.38 23.27-17.6 24.45-16.53 25.63-15.45 26.37-14 27.1-12.55 27.1-10.52L27.1-10.52Q27.1-8.25 26.15-6.25 25.2-4.25 23.45-2.75 21.7-1.25 19.26-0.38 16.82 0.49 13.82 0.49L13.82 0.49Q12.6 0.49 11.25 0.33 9.91 0.17 8.52-0.12 7.13-0.42 5.76-0.85 4.39-1.29 3.13-1.86L3.13-1.86 4.1-6.64 4.59-6.88Q7.18-5.47 9.64-4.64 12.11-3.81 14.4-3.81ZM55.47-5.32L55.47-2.37Q54.39-1.61 53.15-1.07 51.9-0.54 50.58-0.18 49.27 0.17 47.96 0.33 46.65 0.49 45.48 0.49L45.48 0.49Q42.77 0.49 40.44-0.34 38.11-1.17 36.39-2.78 34.67-4.39 33.69-6.75 32.71-9.11 32.71-12.16L32.71-12.16Q32.71-15.41 33.81-18.04 34.91-20.68 36.75-22.52 38.6-24.37 41.03-25.37 43.45-26.37 46.09-26.37L46.09-26.37Q48.29-26.37 50.18-25.65 52.07-24.93 53.45-23.51 54.83-22.09 55.61-19.97 56.39-17.85 56.39-15.04L56.39-15.04Q56.39-14.36 56.33-13.59 56.27-12.82 56.13-12.08L56.13-12.08 38.84-12.08Q38.84-10.11 39.54-8.59 40.23-7.08 41.5-6.07 42.77-5.05 44.55-4.53 46.34-4 48.48-4L48.48-4Q49.09-4 49.91-4.05 50.73-4.1 51.66-4.25 52.59-4.39 53.56-4.65 54.54-4.91 55.47-5.32L55.47-5.32ZM38.84-14.97L50.9-14.97Q50.9-16.75 50.45-18.09 50-19.43 49.22-20.34 48.44-21.24 47.4-21.69 46.36-22.14 45.16-22.14L45.16-22.14Q43.82-22.14 42.67-21.61 41.53-21.07 40.67-20.1 39.82-19.14 39.33-17.82 38.84-16.5 38.84-14.97L38.84-14.97ZM81.86-5.32L81.86-2.37Q80.12-0.98 78-0.24 75.87 0.49 73.43 0.49L73.43 0.49Q70.7 0.49 68.5-0.43 66.3-1.34 64.77-2.97 63.23-4.59 62.4-6.85 61.57-9.11 61.57-11.82L61.57-11.82Q61.57-15.01 62.69-17.69 63.81-20.36 65.75-22.29 67.7-24.22 70.33-25.29 72.97-26.37 76-26.37L76-26.37Q76.66-26.37 77.41-26.31 78.17-26.25 78.96-26.12 79.76-26 80.52-25.79 81.29-25.59 81.95-25.29L81.95-25.29 80.9-20.75 80.39-20.51Q79.95-20.83 79.35-21.13 78.75-21.44 78.07-21.66 77.39-21.88 76.66-22.01 75.92-22.14 75.21-22.14L75.21-22.14Q73.65-22.14 72.3-21.53 70.94-20.92 69.93-19.75 68.92-18.58 68.33-16.88 67.74-15.19 67.74-13.04L67.74-13.04Q67.74-10.79 68.38-9.11 69.01-7.42 70.14-6.29 71.26-5.15 72.8-4.58 74.34-4 76.14-4L76.14-4Q77.27-4 78.71-4.27 80.15-4.54 81.86-5.32L81.86-5.32ZM99.26 0.49L99.26 0.49Q96.21 0.49 93.88-0.54 91.55-1.56 89.96-3.31 88.37-5.05 87.55-7.35 86.74-9.64 86.74-12.21L86.74-12.21Q86.74-15.16 87.79-17.74 88.84-20.31 90.73-22.23 92.62-24.15 95.23-25.26 97.84-26.37 100.97-26.37L100.97-26.37Q104.02-26.37 106.36-25.34 108.71-24.32 110.3-22.56 111.88-20.8 112.7-18.49 113.52-16.19 113.52-13.62L113.52-13.62Q113.52-10.64 112.46-8.07 111.39-5.49 109.49-3.59 107.59-1.68 104.97-0.6 102.36 0.49 99.26 0.49ZM100.29-3.74L100.29-3.74Q101.85-3.74 103.14-4.38 104.44-5.03 105.36-6.19 106.29-7.35 106.8-8.96 107.32-10.57 107.32-12.52L107.32-12.52Q107.32-14.43 106.82-16.16 106.32-17.9 105.36-19.23 104.41-20.56 103.04-21.35 101.68-22.14 99.94-22.14L99.94-22.14Q98.36-22.14 97.06-21.48 95.77-20.83 94.85-19.65 93.94-18.48 93.43-16.86 92.91-15.23 92.91-13.31L92.91-13.31Q92.91-11.38 93.41-9.64 93.91-7.91 94.87-6.59 95.82-5.27 97.18-4.5 98.55-3.74 100.29-3.74ZM120.11 0L120.11-25.88 124.89-25.88 125.72-21.46Q126.58-22.24 127.65-23.11 128.73-23.97 129.99-24.69 131.26-25.42 132.67-25.89 134.07-26.37 135.59-26.37L135.59-26.37Q137.37-26.37 138.82-25.7 140.27-25.02 141.3-23.82 142.32-22.61 142.89-20.92 143.45-19.24 143.45-17.24L143.45-17.24 143.45 0 137.51 0 137.51-16.53Q137.51-17.85 137.15-18.85 136.78-19.85 136.14-20.51 135.49-21.17 134.6-21.51 133.71-21.85 132.68-21.85L132.68-21.85Q130.87-21.85 129.26-20.92 127.65-20 126.02-18.48L126.02-18.48 126.02 0 120.11 0ZM169.35-7.45L169.35-21.07Q167.76-21.75 166.5-21.95 165.25-22.14 164.44-22.14L164.44-22.14Q162.46-22.14 160.91-21.44 159.36-20.73 158.31-19.48 157.26-18.24 156.71-16.52 156.16-14.79 156.16-12.77L156.16-12.77Q156.16-10.94 156.63-9.35 157.09-7.76 157.95-6.57 158.8-5.37 160.01-4.69 161.22-4 162.71-4L162.71-4Q164.47-4 166.14-4.92 167.81-5.83 169.35-7.45L169.35-7.45ZM169.35-25.76L169.35-39.11 175.28-39.11 175.28 0 170.45 0 169.64-4.32Q168.79-3.54 167.77-2.7 166.76-1.86 165.56-1.15 164.37-0.44 162.99 0.02 161.61 0.49 160.05 0.49L160.05 0.49Q157.7 0.49 155.85-0.55 153.99-1.59 152.69-3.31 151.38-5.03 150.7-7.25 150.01-9.47 150.01-11.84L150.01-11.84Q150.01-14.97 151.15-17.63 152.28-20.29 154.26-22.23 156.24-24.17 158.9-25.27 161.56-26.37 164.61-26.37L164.61-26.37Q166-26.37 167.24-26.17 168.47-25.98 169.35-25.76L169.35-25.76ZM212.6-19.78L212.6-19.78Q214.07-19.36 215.41-18.63 216.75-17.9 217.79-16.85 218.83-15.8 219.45-14.44 220.08-13.09 220.08-11.43L220.08-11.43Q220.08-9.45 219.11-7.42 218.15-5.4 216.27-3.75 214.39-2.1 211.6-1.05 208.82 0 205.18 0L205.18 0 195.03 0 195.03-35.77 206.18-35.77Q209.26-35.77 211.55-35.11 213.85-34.45 215.39-33.37 216.93-32.3 217.69-30.88 218.46-29.47 218.46-27.98L218.46-27.98Q218.46-26.71 217.98-25.55 217.49-24.39 216.68-23.35 215.88-22.31 214.81-21.41 213.75-20.51 212.6-19.78ZM201.08-16.5L201.08-4.3 205.77-4.3Q207.94-4.3 209.47-4.87 210.99-5.44 211.95-6.36 212.9-7.28 213.32-8.44 213.75-9.59 213.75-10.79L213.75-10.79Q213.75-12.28 213.17-13.35 212.58-14.43 211.51-15.12 210.43-15.82 208.94-16.16 207.45-16.5 205.65-16.5L205.65-16.5 201.08-16.5ZM201.08-20.68L209.04-20.68Q210.58-21.75 211.52-23.19 212.46-24.63 212.46-26.39L212.46-26.39Q212.46-28.74 210.61-30.1 208.77-31.47 205.38-31.47L205.38-31.47 201.08-31.47 201.08-20.68ZM226.96 0L226.96-25.88 231.74-25.88 232.57-18.16Q232.91-18.8 233.28-19.47 233.65-20.14 234.01-20.76 234.38-21.39 234.7-21.9 235.01-22.41 235.23-22.75L235.23-22.75Q235.75-23.51 236.39-24.18 237.04-24.85 237.8-25.33 238.55-25.81 239.43-26.09 240.31-26.37 241.34-26.37L241.34-26.37Q242.05-26.37 242.75-26.2 243.46-26.03 243.95-25.66L243.95-25.66 243.31-20.21Q242.88-20.34 242.29-20.37 241.7-20.41 241.24-20.41L241.24-20.41Q239.68-20.41 238.46-19.96 237.24-19.51 236.25-18.71 235.26-17.92 234.44-16.85 233.62-15.77 232.87-14.53L232.87-14.53 232.87 0 226.96 0ZM263.21-3.81L263.21-3.81Q262.58-3.27 261.68-2.53 260.79-1.78 259.71-1.11 258.62-0.44 257.34 0.02 256.06 0.49 254.64 0.49L254.64 0.49Q253.2 0.49 251.97-0.04 250.73-0.56 249.82-1.5 248.9-2.44 248.38-3.75 247.85-5.05 247.85-6.64L247.85-6.64Q247.85-8.3 248.52-9.89 249.2-11.47 250.77-12.72 252.35-13.96 254.93-14.73 257.52-15.5 261.33-15.5L261.33-15.5 263.11-15.5 263.11-17.5Q263.11-18.58 262.75-19.43 262.38-20.29 261.72-20.9 261.06-21.51 260.15-21.83 259.23-22.14 258.11-22.14L258.11-22.14Q257.23-22.14 256.23-21.94 255.23-21.73 254.25-21.36 253.27-21 252.35-20.5 251.42-20 250.69-19.41L250.69-19.41 250.25-19.65 249.12-23.75Q252.08-25.29 254.62-25.83 257.16-26.37 259.38-26.37L259.38-26.37Q261.67-26.37 263.47-25.9 265.26-25.44 266.51-24.48 267.75-23.51 268.4-22.03 269.04-20.56 269.04-18.53L269.04-18.53 269.04-6.57Q269.04-6.2 269.11-5.76 269.17-5.32 269.35-4.93 269.53-4.54 269.89-4.27 270.24-4 270.83-4L270.83-4Q271.17-4 271.66-4.1 272.15-4.2 272.63-4.42L272.63-4.42 272.63-1.49Q271.32-0.59 270.01-0.05 268.7 0.49 267.46 0.49L267.46 0.49Q266.48 0.49 265.77 0.12 265.07-0.24 264.58-0.84 264.09-1.44 263.76-2.21 263.43-2.98 263.21-3.81ZM263.11-6.96L263.11-12.62 261.57-12.62Q259.04-12.62 257.48-12.27 255.93-11.91 255.08-11.29 254.23-10.67 253.94-9.85 253.66-9.03 253.66-8.08L253.66-8.08Q253.66-7.08 253.96-6.32 254.25-5.57 254.75-5.05 255.25-4.54 255.93-4.27 256.62-4 257.4-4L257.4-4Q257.99-4 258.62-4.14 259.25-4.27 259.95-4.61 260.65-4.96 261.43-5.52 262.21-6.08 263.11-6.96L263.11-6.96ZM277.88 0L277.88-25.88 283.81-25.88 283.81 0 277.88 0ZM280.83-30.98L280.83-30.98Q280.05-30.98 279.41-31.24 278.76-31.49 278.28-31.93 277.81-32.37 277.55-32.98 277.29-33.59 277.29-34.3L277.29-34.3Q277.29-35.03 277.58-35.66 277.86-36.28 278.36-36.76 278.86-37.23 279.53-37.5 280.2-37.77 280.98-37.77L280.98-37.77Q281.74-37.77 282.37-37.5 283.01-37.23 283.47-36.78 283.93-36.33 284.2-35.71 284.47-35.08 284.47-34.38L284.47-34.38Q284.47-33.64 284.19-33.02 283.91-32.4 283.41-31.95 282.91-31.49 282.25-31.24 281.59-30.98 280.83-30.98ZM292.01 0L292.01-25.88 296.8-25.88 297.63-21.46Q298.48-22.24 299.56-23.11 300.63-23.97 301.9-24.69 303.17-25.42 304.57-25.89 305.98-26.37 307.49-26.37L307.49-26.37Q309.27-26.37 310.73-25.7 312.18-25.02 313.2-23.82 314.23-22.61 314.79-20.92 315.35-19.24 315.35-17.24L315.35-17.24 315.35 0 309.42 0 309.42-16.53Q309.42-17.85 309.05-18.85 308.69-19.85 308.04-20.51 307.39-21.17 306.5-21.51 305.61-21.85 304.59-21.85L304.59-21.85Q302.78-21.85 301.17-20.92 299.56-20 297.92-18.48L297.92-18.48 297.92 0 292.01 0Z" opacity="1" transform="matrix(1,0,0,1,0,0)" fill="#8abe53" class="wordmark-text-0" data-fill-palette-color="primary" id="text-0"></path></svg></g></svg></g></svg></g></svg></g><g transform="matrix(1,0,0,1,419.20266589232835,0)"><svg viewBox="0 0 119.75786585239791 119.75786585239791" height="119.75786585239791" width="119.75786585239791"><g><svg></svg></g><g id="icon-0"><svg viewBox="0 0 119.75786585239791 119.75786585239791" height="119.75786585239791" width="119.75786585239791"><g><path d="M0 59.879c0-33.07 26.809-59.879 59.879-59.879 33.07 0 59.879 26.809 59.879 59.879 0 33.07-26.809 59.879-59.879 59.879-33.07 0-59.879-26.809-59.879-59.879zM59.879 115.234c30.572 0 55.356-24.784 55.355-55.355 0-30.572-24.784-55.356-55.355-55.356-30.572 0-55.356 24.784-55.356 55.356 0 30.572 24.784 55.356 55.356 55.355z" data-fill-palette-color="accent" fill="#398378" stroke="transparent"></path><ellipse rx="59.280143596936966" ry="59.280143596936966" cx="59.87893292619896" cy="59.87893292619896" fill="#398378" stroke="transparent" stroke-width="0" fill-opacity="1" data-fill-palette-color="accent"></ellipse></g><g transform="matrix(1,0,0,1,25.332955010204785,30.538650037946045)"><svg viewBox="0 0 69.09195583198834 58.68056577650582" height="58.68056577650582" width="69.09195583198834"><g><svg xmlns="http://www.w3.org/2000/svg" xmlns:xlink="http://www.w3.org/1999/xlink" version="1.1" x="0" y="0" viewBox="5 11.780999999999999 90 76.43799999999999" style="enable-background:new 0 0 100 100;" xml:space="preserve" height="58.68056577650582" width="69.09195583198834" class="icon-cg-0" data-fill-palette-color="quaternary" id="cg-0"><g fill="#ffffff" data-fill-palette-color="quaternary"><path d="M29.625 63.597c-1.116 0.431-2.157 1.056-3.062 1.83-0.483-0.173-0.996-0.285-1.538-0.285-2.527 0-4.583 2.056-4.583 4.583 0 2.527 2.056 4.583 4.583 4.583s4.584-2.056 4.584-4.583c0-0.861-0.253-1.659-0.668-2.348 0.542-0.4 1.132-0.738 1.764-0.982 0.772-0.298 1.157-1.166 0.859-1.939S30.398 63.301 29.625 63.597zM25.025 71.309c-0.873 0-1.583-0.71-1.583-1.583s0.71-1.583 1.583-1.583 1.584 0.71 1.584 1.583S25.898 71.309 25.025 71.309z" fill="#ffffff" data-fill-palette-color="quaternary"></path><path d="M95 50c0-5.147-2.651-9.83-6.993-12.485 0.174-0.91 0.262-1.828 0.262-2.741 0-8.061-6.541-14.623-14.595-14.658-2.422-5.098-7.501-8.335-13.221-8.335l-0.137 0C55.8 11.823 51.892 14.543 50 18.45c-1.892-3.907-5.798-6.627-10.313-6.669l-0.141 0c-5.72 0-10.799 3.237-13.221 8.335-8.054 0.035-14.595 6.597-14.595 14.658 0 0.914 0.088 1.832 0.262 2.741C7.651 40.17 5 44.853 5 50s2.651 9.83 6.993 12.485c-0.174 0.91-0.262 1.828-0.262 2.741 0 8.061 6.541 14.623 14.595 14.658 2.422 5.098 7.501 8.335 13.221 8.335l0.137 0C44.2 88.177 48.108 85.457 50 81.55c1.892 3.907 5.798 6.627 10.313 6.669l0.141 0c5.72 0 10.799-3.237 13.221-8.335 8.054-0.035 14.595-6.597 14.595-14.658 0-0.914-0.088-1.832-0.262-2.741C92.349 59.83 95 55.147 95 50zM48.218 76.276c0 4.888-3.841 8.899-8.565 8.942l-0.105 0c-4.837 0-9.098-2.911-10.854-7.417-0.226-0.578-0.781-0.955-1.397-0.955-0.02 0-0.04 0-0.06 0.001l-0.334 0.017c-0.17 0.01-0.339 0.02-0.512 0.02-6.429 0-11.658-5.229-11.658-11.658 0-1.034 0.143-2.078 0.424-3.104 0.188-0.687-0.132-1.413-0.768-1.735C10.447 58.39 8 54.409 8 50s2.447-8.39 6.388-10.388c0.636-0.322 0.956-1.048 0.768-1.735-0.281-1.025-0.424-2.069-0.424-3.104 0-6.428 5.229-11.658 11.658-11.658 0.173 0 0.342 0.01 0.512 0.02l0.334 0.017c0.639 0.015 1.224-0.358 1.457-0.954 1.757-4.506 6.018-7.417 10.854-7.417l0.109 0c4.721 0.043 8.562 4.055 8.562 8.942V76.276zM85.612 60.388c-0.636 0.322-0.956 1.048-0.768 1.735 0.281 1.025 0.424 2.069 0.424 3.104 0 6.428-5.229 11.658-11.658 11.658-0.173 0-0.342-0.01-0.512-0.02l-0.334-0.017c-0.643-0.024-1.224 0.358-1.457 0.954-1.757 4.506-6.018 7.417-10.854 7.417l-0.109 0c-4.721-0.043-8.562-4.055-8.562-8.942V23.724c0-4.888 3.841-8.899 8.565-8.942l0.105 0c4.837 0 9.098 2.911 10.854 7.417 0.233 0.596 0.813 0.968 1.457 0.954l0.334-0.017c0.17-0.01 0.339-0.02 0.512-0.02 6.429 0 11.658 5.229 11.658 11.658 0 1.034-0.143 2.078-0.424 3.104-0.188 0.687 0.132 1.413 0.768 1.735C89.553 41.61 92 45.591 92 50S89.553 58.39 85.612 60.388z" fill="#ffffff" data-fill-palette-color="quaternary"></path><path d="M36.583 35.986v3.097c0 0.829 0.672 1.5 1.5 1.5s1.5-0.671 1.5-1.5v-3.106c1.789-0.625 3.084-2.311 3.084-4.311 0-2.527-2.057-4.583-4.584-4.583-0.955 0-1.87 0.291-2.647 0.842-0.676 0.479-0.836 1.415-0.356 2.091 0.478 0.676 1.417 0.835 2.091 0.356 0.268-0.189 0.583-0.29 0.913-0.29 0.873 0 1.584 0.71 1.584 1.583s-0.711 1.583-1.584 1.583c-0.805 0-1.48-0.601-1.572-1.398-0.095-0.823-0.84-1.415-1.662-1.318-0.822 0.095-1.413 0.839-1.318 1.662C33.737 33.985 34.961 35.423 36.583 35.986z" fill="#ffffff" data-fill-palette-color="quaternary"></path><path d="M58.936 35.977v2.148c0 0.829 0.672 1.5 1.5 1.5s1.5-0.671 1.5-1.5v-2.148c1.789-0.625 3.083-2.311 3.083-4.311 0-2.527-2.056-4.583-4.583-4.583s-4.583 2.056-4.583 4.583C55.853 33.666 57.147 35.352 58.936 35.977zM60.436 30.083c0.873 0 1.583 0.71 1.583 1.583s-0.71 1.583-1.583 1.583-1.583-0.71-1.583-1.583S59.563 30.083 60.436 30.083z" fill="#ffffff" data-fill-palette-color="quaternary"></path><path d="M77.386 60.058c-0.807-0.145-1.595 0.392-1.744 1.207-0.137 0.752-0.792 1.297-1.559 1.297-0.873 0-1.583-0.71-1.583-1.583s0.71-1.583 1.583-1.583c0.296 0 0.583 0.081 0.83 0.235 0.702 0.434 1.628 0.221 2.065-0.484 0.437-0.704 0.221-1.628-0.483-2.065-0.723-0.448-1.557-0.685-2.412-0.685-1.992 0-3.674 1.286-4.304 3.065-2.888-0.181-7.132-3.144-7.774-5.964 1.753-0.644 3.014-2.315 3.014-4.289 0-1.999-1.294-3.686-3.083-4.311v-2.835c0-0.829-0.672-1.5-1.5-1.5s-1.5 0.671-1.5 1.5v2.835c-1.789 0.625-3.083 2.311-3.083 4.311 0 1.999 1.294 3.685 3.083 4.31V62c0 0.829 0.672 1.5 1.5 1.5s1.5-0.671 1.5-1.5v-3.247c2.221 2.122 5.275 3.604 7.832 3.709 0.62 1.798 2.31 3.101 4.315 3.101 2.217 0 4.113-1.582 4.51-3.76C78.741 60.987 78.201 60.206 77.386 60.058zM60.436 47.625c0.873 0 1.583 0.71 1.583 1.583s-0.71 1.583-1.583 1.583-1.583-0.71-1.583-1.583S59.563 47.625 60.436 47.625z" fill="#ffffff" data-fill-palette-color="quaternary"></path><path d="M40.621 55.351c-2.527 0-4.583 2.056-4.583 4.583 0 0.935 0.284 1.803 0.766 2.529-0.151 0.269-0.315 0.533-0.439 0.812-0.719-0.202-1.456-0.327-2.203-0.374-0.84-0.054-1.54 0.576-1.592 1.403s0.576 1.539 1.402 1.591c0.615 0.039 1.219 0.158 1.808 0.343v2.261c-1.789 0.625-3.084 2.311-3.084 4.31 0 2.527 2.057 4.583 4.584 4.583s4.583-2.056 4.583-4.583c0-1.999-1.294-3.685-3.083-4.31v-3.064c0.109-0.396 0.262-0.781 0.446-1.157 0.443 0.143 0.906 0.24 1.395 0.24 2.527 0 4.583-2.056 4.583-4.583S43.148 55.351 40.621 55.351zM37.28 74.392c-0.873 0-1.584-0.71-1.584-1.583s0.711-1.583 1.584-1.583 1.583 0.71 1.583 1.583S38.153 74.392 37.28 74.392zM40.621 61.518c-0.873 0-1.583-0.71-1.583-1.583s0.71-1.583 1.583-1.583 1.583 0.71 1.583 1.583S41.494 61.518 40.621 61.518z" fill="#ffffff" data-fill-palette-color="quaternary"></path><path d="M32.511 48.625c3.242 0 6.062-2.193 6.856-5.333 0.203-0.803-0.283-1.619-1.086-1.822-0.806-0.2-1.619 0.283-1.822 1.086-0.458 1.807-2.081 3.069-3.948 3.069h-0.846v-1.89c0-2.25-0.668-4.423-1.932-6.285l-0.694-1.023c0.742-0.815 1.207-1.887 1.207-3.073 0-2.527-2.057-4.583-4.584-4.583s-4.583 2.056-4.583 4.583c0 2.527 2.056 4.583 4.583 4.583 0.249 0 0.489-0.035 0.727-0.073l0.862 1.27c0.925 1.363 1.414 2.954 1.414 4.601v1.89h-4.788c-0.514-1.764-2.035-3.095-3.957-3.272-0.836-0.078-1.556 0.532-1.632 1.356-0.075 0.825 0.531 1.555 1.356 1.631 0.805 0.074 1.435 0.767 1.435 1.576 0 0.873-0.71 1.583-1.583 1.583s-1.584-0.71-1.584-1.583c0-0.207 0.039-0.407 0.116-0.596 0.313-0.767-0.055-1.643-0.822-1.956-0.769-0.314-1.643 0.055-1.955 0.822-0.225 0.551-0.339 1.133-0.339 1.73 0 2.527 2.057 4.583 4.584 4.583 1.923 0 3.566-1.193 4.245-2.875h2.344v3.439c-1.789 0.625-3.083 2.311-3.083 4.311 0 2.527 2.056 4.583 4.583 4.583s4.583-2.056 4.583-4.583c0-1.999-1.294-3.686-3.083-4.311v-3.439H32.511zM24.079 33.354c0-0.873 0.71-1.583 1.583-1.583s1.584 0.71 1.584 1.583-0.711 1.583-1.584 1.583S24.079 34.227 24.079 33.354zM27.586 57.958c-0.873 0-1.583-0.71-1.583-1.583s0.71-1.583 1.583-1.583 1.583 0.71 1.583 1.583S28.459 57.958 27.586 57.958z" fill="#ffffff" data-fill-palette-color="quaternary"></path><path d="M77.931 43.707c-0.315 0-0.632 0.033-0.941 0.098-0.005 0.001-0.01 0.004-0.015 0.005l-1.555-2.357c0.122-0.144 0.25-0.282 0.356-0.443 0.67-1.025 0.901-2.249 0.65-3.448-0.518-2.474-2.955-4.069-5.424-3.548-2.474 0.518-4.065 2.951-3.547 5.43 0.035 0.169 0.079 0.334 0.133 0.495 0.26 0.786 1.104 1.214 1.895 0.954 0.786-0.26 1.214-1.108 0.953-1.895-0.019-0.058-0.033-0.117-0.046-0.173-0.179-0.854 0.371-1.695 1.226-1.874 0.857-0.176 1.696 0.372 1.875 1.226 0.086 0.414 0.006 0.836-0.226 1.19s-0.587 0.597-1.002 0.683c-0.126 0.026-0.246 0.037-0.38 0.033-0.82-0.025-1.522 0.617-1.553 1.445s0.617 1.523 1.445 1.553c0.054 0.002 0.108 0.003 0.162 0.003 0.303 0 0.606-0.034 0.903-0.094l1.577 2.389c-0.859 1.038-1.272 2.431-0.975 3.849 0.441 2.113 2.327 3.646 4.482 3.646 0.315 0 0.632-0.033 0.941-0.098 2.474-0.518 4.065-2.951 3.548-5.424C81.971 45.24 80.086 43.707 77.931 43.707zM78.251 49.841c-0.848 0.174-1.699-0.388-1.875-1.226-0.178-0.854 0.372-1.695 1.227-1.874 0.108-0.022 0.219-0.034 0.328-0.034 0.742 0 1.393 0.53 1.546 1.26C79.655 48.822 79.105 49.662 78.251 49.841z" fill="#ffffff" data-fill-palette-color="quaternary"></path><path d="M61.936 68.332v-2.519c0-0.829-0.672-1.5-1.5-1.5s-1.5 0.671-1.5 1.5v2.519c-1.789 0.625-3.083 2.311-3.083 4.311 0 2.527 2.056 4.583 4.583 4.583s4.583-2.056 4.583-4.583C65.019 70.643 63.724 68.956 61.936 68.332zM60.436 74.226c-0.873 0-1.583-0.71-1.583-1.583s0.71-1.583 1.583-1.583 1.583 0.71 1.583 1.583S61.309 74.226 60.436 74.226z" fill="#ffffff" data-fill-palette-color="quaternary"></path></g></svg></g></svg></g></svg></g></svg></g></svg></g><defs></defs></svg><rect width="395.52" height="87.88515728341902" fill="none" stroke="none" visibility="hidden"></rect></g></svg></g></svg>